<?xml version="1.0" encoding="utf-8"?>
<!-- Generator: Adobe Illustrator 28.0.0, SVG Export Plug-In . SVG Version: 6.00 Build 0)  -->
<svg version="1.1" id="Layer_1" xmlns="http://www.w3.org/2000/svg" xmlns:xlink="http://www.w3.org/1999/xlink" x="0px" y="0px"
	 viewBox="0 0 802 242" style="enable-background:new 0 0 802 242;" xml:space="preserve">
<style type="text/css">
	.st0{fill:#FFFFFF;}
</style>
<g id="_x23_ffffffff">
</g>
<g id="_x23_fe2736ff">
	<path class="st0" d="M158.8,54.9c1.5-1.8,4-2.2,6.2-2.2c4.4,0,8.7,0,13.1,0c1.9,0,3.8,0.7,5,2.1c2.3,2.2,1.4,5.6,1.6,8.4
		c6.7,3.2,12,10,11.9,17.7c0.1,28.3,0.1,56.6,0,85c-0.1,9.8-9.3,17.4-18.7,17.6c-27.3,0.1-54.7,0-82,0c-5.2,0.1-10.6-1.4-14.3-5.1
		c-4-4-6.1-9.8-6-15.4c0-26.7,0-53.3,0-80c0-4.5,0.8-9.2,3.5-12.8c3.6-4.9,9.7-7.9,15.8-7.8c20.8,0,41.6,0,62.4,0
		C157.5,59.8,156.9,56.8,158.8,54.9 M102.7,96.8c-7.4,9.5-10.6,22.2-8.2,34.1c2.1,11.1,8.8,21.2,18.2,27.4c10.6,7.1,24.5,9,36.6,5
		c1.8-0.6,2.8-2.5,2.3-4.3c-0.8-3.8-2.5-7.3-3.5-11.1c-3.1-2.2-6.8,0.1-10.2,0.1c-14.3,1.5-28-11.6-26.8-26
		c-0.2-14.8,15.4-27.2,29.8-23.8c2.6,0.5,6.8,1.9,7.6-1.8c1-4.1,4-8.3,2.7-12.6c-2.8-2.3-6.8-2.5-10.2-3.2
		C126.6,79,111.6,85.3,102.7,96.8 M151.7,100.9c0.3,1.2,0.6,2.4,1,3.5c1.6,0.2,3.5,1.4,4.9,0c2.8-2.7,5.5-5.6,7.8-8.8
		c1.7-3.2-2.5-6.8-5.3-4.6C157.1,94.1,154.1,97.3,151.7,100.9 M158.4,111.2c1,1.8,2.1,4.2,4.7,3.5c3.9-1,7.3-3.3,11.1-4.6
		c2.9-2.9-0.2-8.3-4.2-6.2C166,106,160.5,106.6,158.4,111.2 M162.4,120.4c-2.2,2-0.6,6.4,2.5,6.1c3.9,0.1,7.8,0.3,11.6-0.2
		c3-1.2,2.8-6.2-0.5-6.8c-4.3-0.2-8.7-0.6-13,0.2L162.4,120.4 M159.9,131.5c-0.5,1.3-1,2.5-1.5,3.7c2.7,3.9,7.7,4.8,11.8,6.7
		c2.5,1.5,5.8-1.4,5.1-4.1c-0.7-2.1-2.8-2.8-4.6-3.6C167.3,132.8,163.8,130.4,159.9,131.5 M153.3,141.4c-1.6,1.1-2.2,3.5-0.7,4.9
		c2.7,3.1,5.1,6.5,8.4,8.9c3.2,1.1,6-2.6,4.3-5.4c-2.2-2.8-4.7-5.4-7.2-8C157,140.4,154.7,140.1,153.3,141.4z"/>
</g>
<g id="_x23_6d6e72ff">
	<path class="st0" d="M693.4,62.6c3.4-0.8,7-0.5,10.5-0.3c2.3,0.1,3.9,2.5,3.7,4.7c0,29,0,58,0,87.1c0.3,2.7-1.9,5.1-4.6,5.1
		c-2.7,0.2-5.5,0.2-8.2-0.1c-2.4-0.3-4-2.7-3.7-5.1c0-28.7,0-57.4,0-86.1C691,65.9,691.4,63.6,693.4,62.6z"/>
	<path class="st0" d="M724.3,62.5c3.2-0.5,6.5-0.4,9.8-0.2c2.8,0.1,4.4,3.2,4.1,5.7c0,28.7,0,57.4,0,86.1c0.2,2.4-1.6,4.7-4,5
		c-3,0.3-6.1,0.3-9.1-0.1c-2.3-0.4-3.8-2.8-3.5-5c0-28.7,0-57.3,0-86C721.4,65.9,722,63.1,724.3,62.5z"/>
	<path class="st0" d="M250.4,86.6c6.9-1.5,14.3-1.3,21.1,1c3.6,1.5,2,5.7,1,8.4c-1.2,2.5-1.3,6.2-4.3,7.2c-3.1-0.1-6-1.2-9.1-1.1
		c-8-0.1-15.8,4.7-19.1,12c-2.5,5.3-2.4,11.6,0.1,16.8c3.1,6.5,9.8,11,16.9,11.7c3.4,0.5,6.8-0.6,10.1-1c1.7-0.3,3.2,1.1,3.7,2.6
		c1.1,2.9,2.3,5.8,2.9,8.8c0.4,1.5-0.3,3.2-1.7,3.9c-16.1,6.1-35.8-0.4-45.1-15c-6.9-10.3-7.7-24.2-2.2-35.3
		C229.7,96.6,239.4,89,250.4,86.6z"/>
	<path class="st0" d="M281.1,104.2c5-8.5,13.3-15.1,22.9-17.5c9.8-2.2,20.6-1.3,29.2,4.1c7.8,4.9,14.2,12.5,16.5,21.5
		c2,7.4,1.3,15.2,1.4,22.7c-0.1,6.4,0.1,12.7,0,19.1c0.1,3.2-3,5.6-6.1,5.2c-3-0.1-7.2,0.8-9-2.4c-1-2.9-0.5-6.1-0.8-9.2
		c-2.9,2.7-5.4,5.9-8.9,7.8c-7.3,4.4-16.4,4.5-24.5,2.6c-12.8-3.6-22.5-15.3-24.7-28.3C275.7,121.1,276.7,111.8,281.1,104.2
		 M309.2,102.2c-7.7,1.6-14.2,8-15.5,15.8c-0.7,4.3-0.5,8.9,1.2,12.9c2.6,6.1,8.4,10.6,14.9,11.8c9.2,2.1,19.2-3.5,22.8-12.2
		c3.2-7.3,1.6-16.5-3.9-22.3C324,102.9,316.2,100.5,309.2,102.2z"/>
	<path class="st0" d="M431.5,86.7c9.6-2.2,20.3-1.2,28.8,4c7.8,4.8,14.2,12.4,16.7,21.4c2.7,10,1.6,21.2-4.1,30
		c-4.8,7.4-12.1,13.3-20.7,15.8c-7.5,2-15.6,2-23-0.3c-9.4-3-17.4-10-21.7-18.9c-3.6-7.8-4.7-16.8-2.6-25.2
		C407.7,100.5,418.6,89.9,431.5,86.7 M436.2,102.2c-9.4,2-16.4,11.3-15.7,20.8c-0.1,9.7,7.8,18.6,17.4,19.9
		c12.1,2.3,24.6-8.5,23.7-20.9C462,109.2,448.5,98.7,436.2,102.2z"/>
	<path class="st0" d="M570.5,86.8c8.5-2.3,18-1.3,25.5,3.3c2.3,1.3,4.2,4.2,2.9,6.8c-1.4,2.8-3.5,6-6.9,6.4c-4.3-1.5-8.2-4.6-13.1-4
		c-3.8-0.4-8,2.6-7.3,6.8c1.1,4.3,5.5,6.4,9.2,8.1c7.3,3.2,15.2,6.8,19.3,14c4.7,8.4,2.4,19.8-5.1,25.7c-5.7,4.9-13.7,6-20.9,5.1
		c-7.1-0.8-13.9-4.2-18.5-9.5c-1.6-1.7-1.6-4.4-0.2-6.2c1.8-2.4,4.4-5.5,7.8-4.6c3.3,1.6,5.9,4.4,9.4,5.7c3.5,1.3,7.6,1.9,11-0.1
		c3.4-2,4.1-7.2,1.5-10.1c-2.9-3.1-7-4.7-10.7-6.4c-5.9-2.5-11.7-6-15.4-11.4c-3.4-4.8-4-11.3-2.2-16.8
		C558.6,93.3,564.2,88.6,570.5,86.8z"/>
	<path class="st0" d="M618.8,96.7c13.3-14.4,38.7-15,52.4-0.9c6.8,6.5,10.8,15.8,10.4,25.2c0,2.8-2.9,4.8-5.5,4.6
		c-16.9,0.1-33.7-0.1-50.6,0.1c1,6.5,4.9,12.8,11,15.6c7.7,4,18,2.6,24-3.8c1.7-1.8,3.7-4,6.6-3.4c3.3,0.7,6.8,2.2,9.2,4.6
		c2.1,3.4-1.4,6.6-3.4,9.1c-13.5,15.4-40.2,15.2-54,0.3C605.2,134.6,605.2,110.2,618.8,96.7 M627.2,113.1c12.2-0.2,24.3,0,36.5,0
		c-1.4-4.3-4.1-8.4-8.1-10.6c-3.8-2.3-8.3-2.5-12.6-2.2C635.7,100.6,628.8,106,627.2,113.1z"/>
	<path class="st0" d="M378.9,96.2c3.2-4,6.9-8,12.1-9c4.8-1.3,9.7,0.1,13.9,2.4c-0.8,4.6-3.6,8.6-6,12.5c-3.2,1.2-6.9-0.8-10.1,1
		c-6.2,3.1-9.3,10.3-9.5,16.9c-0.2,11,0,22,0,33c0.1,1.8-0.5,3.6-1,5.3c-4,1.3-8.3,1.1-12.4,0.8c-2.4-0.2-3.8-2.7-3.5-5
		c0-20.4,0-40.8,0-61.1c-0.4-2.3,1.4-4.6,3.7-4.7c3.4-0.2,7-0.6,10.3,0.4C379.4,90,378.6,93.6,378.9,96.2z"/>
	<path class="st0" d="M490.3,88.3c2.8-0.9,5.8-0.5,8.7-0.5c2.7,0,5.3,2.4,5.2,5.1c0.1,12.7,0,25.4,0.1,38.1c0,3.5,1.5,7.2,4.3,9.4
		c3.9,2.9,9.5,3.3,13.9,1.4c4.1-1.8,6.8-6.2,6.8-10.7c0.1-12.7,0-25.3,0-38c-0.4-3.1,2.7-5.5,5.6-5.2c2.8,0.1,5.9-0.5,8.6,0.8
		c2.4,1.2,2.7,4.1,2.6,6.4c-0.1,10,0.2,20-0.1,30c-0.4,5.2,0.2,10.6-1.7,15.6c-2.7,8.1-9.3,14.7-17.5,17.2
		c-6.5,1.9-13.5,1.9-20.1,0.1c-9.4-2.9-16.9-11.2-18.7-20.9c-0.9-3.9-0.7-8-0.7-12c0-10.7-0.1-21.3,0-32
		C487.4,91.1,488.5,89.1,490.3,88.3z"/>
</g>
</svg>
