<?xml version="1.0" encoding="utf-8"?>
<!-- Generator: Adobe Illustrator 28.0.0, SVG Export Plug-In . SVG Version: 6.00 Build 0)  -->
<svg version="1.1" id="Layer_1" xmlns="http://www.w3.org/2000/svg" xmlns:xlink="http://www.w3.org/1999/xlink" x="0px" y="0px"
	 viewBox="0 0 1000 245" style="enable-background:new 0 0 1000 245;" xml:space="preserve">
<style type="text/css">
	.st0{fill:#FFFFFF;}
</style>
<g id="_x23_ffffffff">
</g>
<g id="_x23_0177f5ff">
	<path class="st0" d="M51.1,76.5c1.2-2.6,4-4.2,6.9-4.1c23.7-0.1,47.4,0,71,0c3.2-0.1,7,0.4,8.4,3.7c3.5,7.2,6.5,14.6,9.6,22
		c-32,0.1-64,0-96,0c-3.2,0-6.4,0.1-9.6-0.2C44.9,90.8,47.7,83.5,51.1,76.5z"/>
	<path class="st0" d="M358.7,94.9c2.2-0.4,4.4-0.7,6.6-0.9c0,7.8-0.1,15.6,0,23.5c6.3-7.8,19.6-8.3,26.2-0.5
		c5.9,7.4,5.8,19.3-0.6,26.4c-6.7,7.1-19.5,6.8-25.6-1c0,1.7-0.1,3.5-0.1,5.2c-2.2,0-4.3,0.1-6.5,0.1
		C358.7,130.1,358.9,112.5,358.7,94.9 M373.3,117.9c-7.6,2.3-9.9,12.2-6.5,18.7c2.4,5.2,9.2,7.4,14.4,5.3c9.3-3.1,10.3-17.8,2.4-23
		C380.5,117.2,376.6,116.7,373.3,117.9z"/>
	<path class="st0" d="M488,94.8c2.2-0.3,4.4-0.5,6.6-0.8c0.1,11.3-0.1,22.5,0.1,33.8c5.3-5.2,10.7-10.5,16.2-15.5
		c2.6,0,5.3,0,7.9,0.1c-5.6,5.5-11.1,11.1-16.8,16.6c6,6.6,13,12.3,19.1,18.8c-3,0-6.1,0-9.1,0c-5.7-5.6-11.5-11.1-17.4-16.5
		c-0.1,5.5,0,11-0.1,16.5c-2.2,0-4.4-0.1-6.5,0C488,130,488,112.4,488,94.8z"/>
	<path class="st0" d="M682.3,94.8c2.2-0.3,4.3-0.6,6.4-0.9c0.2,11.2,0,22.5,0.1,33.7c5.4-5.1,10.8-10.1,16-15.3c2.7,0,5.3-0.1,8-0.1
		c-5.3,5.8-11.2,11.2-16.7,16.9c6.3,6.1,12.9,12,19,18.4c-3.5-0.3-8,1.4-10.7-1.6c-5.2-5.1-10.5-10-15.7-15c0,5.6,0.1,11.1,0,16.7
		c-2.2,0-4.3-0.1-6.5-0.1C682.3,130,682.2,112.4,682.3,94.8z"/>
	<path class="st0" d="M831.7,95.8c2.2-0.2,4.4-0.5,6.6-0.7c-0.2,17.4-0.1,34.8,0,52.2c-2.2,0-4.3,0-6.5,0
		C831.5,130.2,831.5,113,831.7,95.8z"/>
	<path class="st0" d="M198.6,98.2c11.2,0.2,22.4,0.1,33.6,0.1c0,2,0,3.9,0,5.9c-9-0.1-17.9,0.1-26.9-0.1c-0.1,5.9-0.2,11.8,0.1,17.7
		c7.8-0.1,15.5-0.1,23.3,0c0,2,0,3.9,0,5.9c-7.8-0.1-15.6-0.1-23.4,0c-0.1,6.8,0,13.5-0.1,20.3c-2.1,0-4.3,0-6.4,0
		C198.6,131.3,198.8,114.7,198.6,98.2z"/>
	<path class="st0" d="M546.6,98.5c2.3,0,4.6,0,6.9,0.1c6.1,11.8,12.7,23.2,18.9,35c6.9-11.5,12.9-23.5,19.5-35.2c2.2,0,4.4,0,6.6,0
		c-0.1,16.2,0,32.4,0,48.6c-2.2,0-4.4,0-6.7,0.1c-0.1-12.2,0.1-24.3-0.1-36.5c-5,9.9-10.6,19.5-15.8,29.4c-2.3,0-4.5,0-6.8-0.1
		c-5-9.9-10.7-19.3-15.6-29.2c-0.3,12.1,0,24.2-0.1,36.4c-2.2,0-4.5,0-6.7,0C546.7,130.8,546.8,114.7,546.6,98.5z"/>
	<path class="st0" d="M760.7,101.4c2.3,0,4.7,0,7,0c0,3.6,0,7.2,0,10.9c3.7,0,7.5,0,11.2-0.1c-0.2,1.9-0.4,3.8-0.5,5.7
		c-3.6-0.1-7.1-0.1-10.7-0.1c0.1,6.8-0.4,13.7,0.3,20.4c1.3,4.6,7.3,3.9,11.1,3.7c0,1.7,0.1,3.4,0.2,5.1c-4.2,1.2-8.8,1.5-12.9-0.4
		c-3.3-1.8-5.3-5.5-5.5-9.3c-0.5-6.5,0-13.1-0.3-19.7c-2.1,0-4.3,0-6.4,0c0-1.9,0-3.7,0-5.6c2.1,0,4.3,0,6.4,0
		C760.7,108.7,760.7,105,760.7,101.4z"/>
	<path class="st0" d="M39.7,105.2c36.3,0,72.7,0.1,109-0.1c-0.1,4.3,0.9,9.3-2,13c-1.5,2.3-3.9,3.8-6.5,4.4c-0.5,13.6,0,27.3-0.2,41
		c0,5.1-4.8,9.5-9.9,9.2c-24,0-48,0.1-72,0c-5,0.2-9.5-4.2-9.6-9.2c-0.1-13.5,0-27,0-40.5c-3.2-1.4-6.5-3.4-8-6.8
		C39.1,112.7,39.7,108.8,39.7,105.2 M55.2,122c-0.2,14.1-0.1,28.2,0,42.3c0.4,0.4,1.1,1.2,1.5,1.6c7.9,0.1,15.8,0,23.8,0.1
		c0.2-9.1,0-18.3,0.1-27.4c-0.2-3.1,2.2-6.2,5.4-6.2c5-0.3,10-0.1,15-0.1c3.5-0.4,6.7,2.9,6.5,6.3c0.1,9.2-0.1,18.3,0,27.5
		c7.5-0.1,15,0.1,22.5-0.1c1.9,0.3,3.6-1.4,3.2-3.3c0.1-13.4-0.1-26.9,0.1-40.3c-1.5-1.2-3-2.3-4.4-3.6c-6.5,5.5-16.6,5.5-22.9-0.2
		c-6.3,5.6-16.2,5.8-22.7,0.5c-6.6,5.6-17.1,5.2-23.1-1.1C58.7,119.4,57,120.8,55.2,122z"/>
	<path class="st0" d="M241.3,115.7c7-6.6,18.9-5.5,25,1.7c0-1.7,0-3.4,0.1-5.1c2.1,0,4.2,0,6.3-0.1c0.2,11.8,0.1,23.7,0.1,35.5
		c-2.1-0.1-4.3-0.1-6.4-0.1c0-1.7-0.1-3.4-0.1-5.2c-6.3,7.9-19.3,8.1-25.9,0.6C234,135.4,234.2,122.8,241.3,115.7 M251.2,117.7
		c-10.6,2.4-11.2,19-2.1,23.7c4.2,2.1,9.7,1.6,13.2-1.6c4.2-3.8,5-10.5,2.9-15.6C263,119,256.7,116.1,251.2,117.7z"/>
	<path class="st0" d="M288.5,113.9c7.2-4,16.4-2.8,23.2,1.6c-0.9,1.6-1.8,3.1-2.7,4.7c-4.7-2-10.1-3.9-15.2-2
		c-8.3,3.8-9.2,16.3-2.8,22.2c5.4,4.2,13.2,2.3,18.2-1.6c1.1,1.7,2.1,3.3,3.2,5c-6.8,5.5-17.1,6.7-24.7,2
		C276.9,139,277.2,120.2,288.5,113.9z"/>
	<path class="st0" d="M328.4,112.1c6.9-1.9,16-0.6,19.7,6.3c2.7,4.3,2.7,9.5,2.6,14.4c-9.2,0-18.4-0.1-27.6,0c1.1,3.7,3,7.7,6.9,9
		c5.8,1.8,12.5,0.7,17.3-3c1,1.7,2,3.4,2.9,5.2c-5.4,3.5-11.9,5.2-18.3,4.2c-5.6-0.7-10.9-4.2-13.5-9.3
		C313.1,129.5,317.8,115.4,328.4,112.1 M328.4,118.1c-3.3,1.8-4.8,5.6-5.2,9.2c7.1,0.2,14.1,0.1,21.2,0.1c-0.4-2.4-0.7-4.9-2.3-6.9
		C339.1,116.2,332.8,115.9,328.4,118.1z"/>
	<path class="st0" d="M415.2,111.7c8.1-1.7,17.3,2,20.8,9.7c3.4,7.4,2.1,17.2-4.3,22.6c-8.7,7.8-24.6,5-29.3-6
		C397.2,127.8,403.6,113.6,415.2,111.7 M414.5,118.3c-4.2,2.1-7.2,6.5-7.2,11.2c-0.5,6.6,4.9,13.3,11.7,13.3
		c7.7,0.4,13.7-7.9,12-15.2C430,120.1,421.4,114.9,414.5,118.3z"/>
	<path class="st0" d="M456.3,112.1c6.4-1.7,14-0.5,18.8,4.3c7.4,7.2,7.3,20.8-0.6,27.7c-8.6,7.9-24.6,5.2-29.3-5.8
		C440.2,128.5,445.5,115,456.3,112.1 M457.5,118.2c-4.8,1.9-7.7,7.3-7.5,12.4c0,7,6.8,13.5,13.9,11.9c7.2-1.1,11.5-9.2,9.5-16
		C472,119.7,464,115.2,457.5,118.2z"/>
	<path class="st0" d="M614.9,114.4c7.1-5.1,17.7-3.5,23.3,3.1c0-1.8,0.1-3.5,0.1-5.3c2.1,0,4.2,0,6.3,0c0.2,11.8,0.1,23.6,0,35.5
		c-2.1,0-4.2,0-6.4-0.1c0-1.7,0-3.4,0-5.1c-3.3,3.3-7.4,5.9-12.2,6c-7.6,0.8-15.1-4.4-17.3-11.7
		C606.5,129.1,607.9,119.2,614.9,114.4 M622.3,117.9c-7.7,2.3-9.4,12.6-5.9,19c2.8,5.4,10.2,7.3,15.5,4.4c7.2-3.8,8.4-14.9,2.8-20.6
		C631.7,117.3,626.5,116.5,622.3,117.9z"/>
	<path class="st0" d="M728,112.4c6.4-2.1,14.5-1.4,19.1,4c3.8,4.5,4.2,10.7,4.1,16.3c-9.1,0.1-18.2,0-27.3,0
		c0.5,4.3,3.3,8.4,7.7,9.4c5.4,1.2,11.6,0.3,16-3.3c1.1,1.6,2.2,3.2,3.3,4.9c-5.8,4.2-13.4,5.7-20.3,4.1
		c-6.2-1.4-11.5-6.4-13.1-12.6C714.8,126.6,719.1,115.6,728,112.4 M727.6,118.9c-2.7,2-3.4,5.3-4,8.4c7,0.1,14.1,0.1,21.1,0.1
		c-0.4-2.5-0.6-5.2-2.4-7.2C738.8,115.8,731.9,115.8,727.6,118.9z"/>
	<path class="st0" d="M793.6,117.3c6.5-7.5,19.3-8.1,26-0.5c6.8,8.3,5.9,22.7-3.2,28.9c-7,4.8-17.3,3.3-22.8-3.2
		c0,6.7,0.1,13.3,0,20c-2.2,0-4.4,0-6.6,0c-0.1-16.8-0.2-33.6,0-50.4c2.2,0,4.4,0.1,6.6,0.2C793.7,114,793.6,115.7,793.6,117.3
		 M802.2,117.7c-8.5,1.9-11.1,13.4-6.4,20c3.4,5.6,11.9,6.6,16.8,2.4c5-4.1,5.7-11.7,2.9-17.2C813,118.2,807.1,116.3,802.2,117.7z"
		/>
	<path class="st0" d="M854.8,113.2c7.1-3.6,16.2-1.7,21.4,4.3c0-1.7,0-3.5,0-5.2c2.1,0,4.2,0,6.4,0c0.2,11.8,0.1,23.7,0,35.5
		c-2.1,0-4.2-0.1-6.3-0.1c-0.1-1.7-0.2-3.3-0.3-5c-5.7,6.7-16.7,8-23.6,2.4C842.6,137.4,843.4,119.1,854.8,113.2 M861.2,117.6
		c-10.6,2.2-11.5,19.3-2.1,23.8c4,2,9.2,1.5,12.7-1.2c4.5-3.9,5.6-11,3.1-16.3C872.5,118.8,866.5,116.1,861.2,117.6z"/>
	<path class="st0" d="M903.5,111.8c6.2-1.3,12.8,0.2,18.1,3.5c-0.9,1.6-1.8,3.2-2.7,4.7c-4.9-2.1-10.8-4.3-15.9-1.6
		c-7.8,4.3-8.2,16.8-1.3,22.2c5.4,3.8,12.6,1.5,17.6-2c0.9,1.8,2.9,3.3,2.5,5.5c-7.7,5.7-19.7,6.2-26.8-0.8
		c-4.9-4.8-5.9-12.4-4.5-18.8C891.9,118.3,897.3,113.2,903.5,111.8z"/>
	<path class="st0" d="M937.7,112.3c6.4-1.9,14.6-1.1,19,4.5c3.6,4.5,3.8,10.4,3.7,15.9c-9.2,0.1-18.4,0-27.6,0.1
		c0.8,3.3,2.2,6.8,5.5,8.4c6,2.9,13.4,1.5,18.7-2.2c1,1.7,1.9,3.3,2.9,5c-6.3,4.4-14.6,5.9-22,3.6c-7.1-2.3-12.1-9.6-12.1-17
		C925.7,122.8,930.2,114.7,937.7,112.3 M936.6,119.1c-2.4,2-3.3,5.2-3.8,8.2c7,0.2,14.1,0.2,21.2,0.1c-0.5-2.8-0.9-5.8-3-7.8
		C947.2,115.8,940.8,116,936.6,119.1z"/>
	<path class="st0" d="M654.2,112.6c2.1-0.1,4.2-0.1,6.3-0.2c0,2.2,0,4.3,0,6.5c3.7-4.8,9.6-7.7,15.8-6.7c0,1.9,0,3.7,0,5.6
		c-2.9,0.1-6,0.1-8.7,1.5c-4.6,2.1-7.2,7.3-7.1,12.2c0,5.2,0,10.4,0,15.6c-2.1,0-4.2,0-6.3,0C654.2,135.5,654.2,124,654.2,112.6z"/>
</g>
</svg>
