<?xml version="1.0" encoding="utf-8"?>
<!-- Generator: Adobe Illustrator 28.0.0, SVG Export Plug-In . SVG Version: 6.00 Build 0)  -->
<svg version="1.1" id="Layer_1" xmlns="http://www.w3.org/2000/svg" xmlns:xlink="http://www.w3.org/1999/xlink" x="0px" y="0px"
	 viewBox="0 0 368 92" style="enable-background:new 0 0 368 92;" xml:space="preserve">
<style type="text/css">
	.st0{fill-rule:evenodd;clip-rule:evenodd;fill:#FFFFFF;}
	.st1{fill:#FFFFFF;}
</style>
<path class="st0" d="M124.4,7.8c-2.4,1-4.4,2.3-6.1,4c-1.7,1.7-2.9,3.8-3.8,6.2c-0.9,2.4-1.3,5-1.3,7.9v4.4h-18v-4.4
	c0-1.3,0.2-2.3,0.7-3.2c0.4-0.8,1-1.5,1.6-1.9c0.7-0.5,1.4-0.8,2.2-1c0.8-0.2,1.5-0.3,2.2-0.3c1.2,0,2.1,0.1,2.9,0.2
	c0.8,0.1,1.3,0.2,1.7,0.4l0.8-12.6c-0.8-0.3-2.7-0.6-4.1-0.8c-1.4-0.2-2.8-0.3-4.1-0.3c-3.1,0-5.8,0.5-8.3,1.4c-2.4,1-4.5,2.3-6.2,4
	c-1.7,1.7-2.9,3.8-3.8,6.2c-0.9,2.4-1.3,5-1.3,7.9v4.4h-8.9c-0.3-0.9-0.7-1.8-1-2.7c-1.9-4.4-4.6-8.2-7.9-11.4
	c-3.3-3.1-7.1-5.6-11.5-7.3c-4.4-1.7-9-2.5-13.9-2.5c-4.9,0-9.6,0.8-14,2.5c-4.4,1.7-8.2,4.1-11.6,7.3c-3.3,3.1-5.9,6.9-7.9,11.4
	C1,32,0,37,0,42.4c0,5.5,1,10.4,2.9,14.8c1.9,4.4,4.6,8.2,7.9,11.3c3.3,3.1,7.2,5.6,11.6,7.3c4.4,1.7,9,2.5,14,2.5
	c4.9,0,9.6-0.8,13.9-2.5c4.4-1.7,8.2-4.1,11.5-7.3c3.3-3.2,5.9-6.9,7.9-11.3c1.8-4.2,2.8-8.8,2.9-13.9h7v34.3h15.6V43.3h18v34.3
	h15.6V43.3h8.2l2.9-13h-11.1v-4.4c0-1.3,0.2-2.3,0.7-3.2c0.4-0.8,1-1.5,1.6-1.9c0.7-0.5,1.4-0.8,2.2-1c0.8-0.2,1.5-0.3,2.2-0.3
	c1.2,0,2.1,0.1,2.9,0.2c0.8,0.1,1.3,0.2,1.7,0.4l0.8-12.7c-0.8-0.3-2.7-0.6-4.1-0.8c-1.4-0.2-2.8-0.3-4.2-0.3
	C129.5,6.4,126.8,6.8,124.4,7.8z M276,49.7V6.4h16.3v44.7c0,4.6-0.8,8.5-2.3,12c-1.5,3.4-3.6,6.3-6.2,8.7c-2.6,2.3-5.7,4.1-9.2,5.3
	c-3.5,1.2-7.3,1.8-11.3,1.8c-4,0-7.8-0.6-11.3-1.8c-3.5-1.2-6.5-3-9.2-5.3c-2.6-2.3-4.7-5.2-6.2-8.7c-1.5-3.4-2.3-7.4-2.3-12V6.4
	h16.3v43.4c0,4.4,1.1,7.7,3.4,9.9c2.3,2.2,5.3,3.3,9.3,3.3c3.9,0,7-1.1,9.3-3.3C274.9,57.4,276,54.1,276,49.7z M317.9,25.1
	c2.6-1.3,5.8-2,9.5-2s7,0.7,10,2c2.9,1.3,5.4,3.2,7.5,5.5c2,2.3,3.6,5.1,4.7,8.4c1.1,3.2,1.6,7.3,1.6,11.1c0,3.9-0.6,8-1.8,11.2
	c-1.2,3.3-2.9,6.1-5,8.4c-2.2,2.3-4.7,4.2-7.7,5.5c-3,1.3-6.3,2-9.8,2c-3.3,0-6.1-0.5-8.5-1.5c-2.4-1-4.2-2.2-5.3-3.6v19h-15.6V24.4
	h15.1v5.2C313.5,27.9,315.3,26.4,317.9,25.1z M320.5,62c1.4,0.5,2.9,0.8,4.4,0.8s3-0.3,4.4-0.8c1.4-0.5,2.7-1.3,3.8-2.3
	c1.1-1.1,2-2.4,2.6-4c0.6-1.6,0.9-3.4,0.9-5.6s-0.3-4.2-0.9-5.8c-0.6-1.6-1.5-2.9-2.6-3.9c-1.1-1.1-2.3-1.8-3.8-2.3
	c-1.4-0.5-2.9-0.8-4.4-0.8s-3,0.3-4.4,0.8c-1.4,0.5-2.6,1.3-3.7,2.3c-1.1,1.1-1.9,2.4-2.5,3.9c-0.6,1.6-0.9,3.7-0.9,5.8
	s0.3,3.9,0.9,5.5c0.6,1.6,1.5,2.9,2.5,3.9C317.8,60.6,319.1,61.4,320.5,62z M221.8,24.7c-1.2,0.2-2.5,0.4-3.7,1
	c-1.2,0.5-4.6,2.3-5.7,5v-6h-15.1v52.8h15.6V53.2c0-2.5,0.3-4.7,1-6.4c0.7-1.8,1.5-3.2,2.6-4.3c1.1-1.1,2.4-1.9,3.8-2.3
	c1.4-0.5,2.8-0.8,4.5-1c1.7-0.1,3.8,0,4.7,0.2l0.3-14.3c-1.2-0.3-2.9-0.6-4.1-0.6C224.5,24.5,223.1,24.6,221.8,24.7z M156.9,26.1
	c3.1-1.3,6.3-1.9,9.6-1.9c8,0,14.2,2.3,18.8,6.8c4.6,4.6,6.8,10.9,6.8,19.2c0,1.1,0,2.1-0.1,3.1c-0.1,1-0.1,1.5-0.2,1.7h-35.6
	c0.1,1.4,0.4,2.7,1.1,3.9c0.7,1.2,1.5,2.2,2.6,3.1c1.1,0.9,2.3,1.6,3.7,2c1.4,0.5,2.8,0.7,4.3,0.7c2.9,0,5.1-0.6,6.7-1.8
	c1.6-1.2,2.8-2.8,3.5-4.8l13.1,3.7c-0.6,2.2-1.6,4.2-2.9,6.2c-1.3,2-2.9,3.7-4.9,5.1c-2,1.5-4.3,2.6-6.9,3.5
	c-2.6,0.8-5.6,1.3-8.8,1.3c-3.5,0-6.9-0.6-10.1-1.8c-3.2-1.2-6.1-3-8.5-5.3c-2.5-2.3-4.4-5.1-5.9-8.5c-1.4-3.3-2.2-7.1-2.2-11.4
	c0-4.1,0.7-7.8,2.1-11.1c1.4-3.3,3.3-6.1,5.7-8.4C151.1,29.1,153.9,27.3,156.9,26.1z M157.6,41.7c-0.4,1-0.7,2-0.8,3h20.5
	c-0.1-1-0.3-1.9-0.7-3c-0.4-1-1-1.9-1.8-2.8c-0.8-0.8-1.9-1.5-3.1-2c-1.3-0.5-2.8-0.8-4.7-0.8c-1.6,0-3.1,0.3-4.3,0.8
	c-1.2,0.5-2.3,1.2-3.1,2C158.7,39.8,158.1,40.7,157.6,41.7z M29.4,61.3c2.3,0.8,4.6,1.2,7,1.2c2.3,0,4.7-0.4,7-1.2
	c2.3-0.8,4.4-2,6.2-3.7c1.8-1.7,3.3-3.7,4.5-6.2c1.1-2.5,1.7-5.5,1.7-9c0-3.4-0.6-6.4-1.7-9c-1.1-2.6-2.6-4.7-4.5-6.3
	c-1.8-1.6-3.9-2.8-6.2-3.7c-2.3-0.8-4.6-1.2-7-1.2c-2.3,0-4.7,0.4-7,1.2c-2.3,0.8-4.4,2-6.3,3.7c-1.9,1.6-3.4,3.7-4.5,6.3
	c-1.1,2.6-1.7,5.6-1.7,9c0,3.5,0.6,6.5,1.7,9c1.1,2.5,2.6,4.6,4.5,6.2C25,59.3,27.1,60.5,29.4,61.3z"/>
<path class="st1" d="M351.6,12.1c0-0.6,0.1-1.3,0.2-1.9c0.2-0.6,0.4-1.2,0.7-1.7c0.3-0.5,0.7-1,1.1-1.4c0.4-0.4,0.9-0.8,1.4-1.1
	c0.5-0.3,1.1-0.5,1.7-0.7c0.6-0.2,1.2-0.3,1.9-0.3c0.6,0,1.3,0.1,1.9,0.3c0.6,0.2,1.2,0.4,1.7,0.7c0.5,0.3,1,0.7,1.4,1.1
	c0.4,0.4,0.8,0.9,1.1,1.4c0.3,0.5,0.5,1.1,0.7,1.7c0.2,0.6,0.3,1.2,0.3,1.9c0,0.6-0.1,1.3-0.3,1.9c-0.2,0.6-0.4,1.2-0.7,1.7
	c-0.3,0.5-0.7,1-1.1,1.4c-0.4,0.4-0.9,0.8-1.4,1.1c-0.5,0.3-1.1,0.5-1.7,0.7c-0.6,0.2-1.2,0.2-1.9,0.2c-0.6,0-1.3-0.1-1.9-0.2
	c-0.6-0.2-1.2-0.4-1.7-0.7c-0.5-0.3-1-0.7-1.4-1.1c-0.4-0.4-0.8-0.9-1.1-1.4c-0.3-0.5-0.5-1.1-0.7-1.7
	C351.7,13.4,351.6,12.8,351.6,12.1z M352.9,12.1c0,0.8,0.1,1.6,0.4,2.3c0.3,0.7,0.7,1.3,1.2,1.9c0.5,0.5,1.1,0.9,1.8,1.2
	c0.7,0.3,1.4,0.5,2.3,0.5c0.8,0,1.6-0.2,2.3-0.5c0.7-0.3,1.3-0.7,1.8-1.2c0.5-0.5,0.9-1.2,1.2-1.9c0.3-0.7,0.4-1.5,0.4-2.3
	c0-0.6-0.1-1.1-0.2-1.6c-0.1-0.5-0.3-1-0.6-1.4c-0.2-0.4-0.5-0.8-0.9-1.2c-0.3-0.4-0.7-0.7-1.2-0.9c-0.4-0.3-0.9-0.5-1.4-0.6
	c-0.5-0.1-1-0.2-1.6-0.2c-0.5,0-1.1,0.1-1.6,0.2c-0.5,0.1-0.9,0.3-1.4,0.6c-0.4,0.3-0.8,0.6-1.2,0.9c-0.3,0.4-0.6,0.8-0.9,1.2
	c-0.2,0.4-0.4,0.9-0.6,1.4C353,11,352.9,11.6,352.9,12.1z M357.6,13.3v3.1h-2V7.8h3.1c1.2,0,2.1,0.2,2.6,0.6c0.6,0.4,0.8,1,0.8,1.8
	c0,0.6-0.1,1.1-0.4,1.5c-0.3,0.4-0.7,0.7-1.4,0.9c0.1,0.1,0.3,0.2,0.4,0.3c0.1,0.1,0.2,0.3,0.3,0.4l1.7,2.9h-2
	c-0.3,0-0.5-0.1-0.6-0.3l-1.4-2.5c-0.1-0.1-0.1-0.2-0.2-0.2c-0.1-0.1-0.2-0.1-0.4-0.1H357.6z M357.6,11.8h0.8c0.3,0,0.6,0,0.8-0.1
	c0.2-0.1,0.4-0.1,0.5-0.2c0.1-0.1,0.2-0.2,0.2-0.4c0-0.2,0.1-0.3,0.1-0.5c0-0.2,0-0.4-0.1-0.5c0-0.2-0.1-0.3-0.2-0.4
	c-0.1-0.1-0.2-0.2-0.4-0.2c-0.2-0.1-0.4-0.1-0.7-0.1h-1V11.8z"/>
</svg>
