<?xml version="1.0" encoding="utf-8"?>
<!-- Generator: Adobe Illustrator 28.0.0, SVG Export Plug-In . SVG Version: 6.00 Build 0)  -->
<svg version="1.1"
	 id="svg863" xmlns:sodipodi="http://sodipodi.sourceforge.net/DTD/sodipodi-0.dtd" xmlns:inkscape="http://www.inkscape.org/namespaces/inkscape" xmlns:cc="http://creativecommons.org/ns#" xmlns:svg="http://www.w3.org/2000/svg" xmlns:dc="http://purl.org/dc/elements/1.1/" xmlns:rdf="http://www.w3.org/1999/02/22-rdf-syntax-ns#"
	 xmlns="http://www.w3.org/2000/svg" xmlns:xlink="http://www.w3.org/1999/xlink" x="0px" y="0px" viewBox="0 0 207.2 119.1"
	 style="enable-background:new 0 0 207.2 119.1;" xml:space="preserve">
<style type="text/css">
	.st0{fill:#FFFFFF;}
</style>
<sodipodi:namedview  bordercolor="#666666" borderopacity="1" gridtolerance="10" guidetolerance="10" id="namedview865" inkscape:current-layer="svg863" inkscape:cx="103.57534" inkscape:cy="58.536025" inkscape:pageopacity="0" inkscape:pageshadow="2" inkscape:window-height="706" inkscape:window-maximized="1" inkscape:window-width="1360" inkscape:window-x="-8" inkscape:window-y="-8" inkscape:zoom="3.35625" objecttolerance="10" pagecolor="#ffffff" showgrid="false">
	</sodipodi:namedview>
<g id="g827" transform="matrix(0.33000001,0,0,0.33000001,643.69971,361.29999)">
	<g id="g825" transform="translate(793.30103,542.63702)">
		<path id="path823" inkscape:connector-curvature="0" class="st0" d="M-2595.2-1601.6c-82.1,0-148.7,66.6-148.7,148.7
			c0,82.1,66.6,148.7,148.7,148.7c82.1,0,148.7-66.6,148.7-148.7C-2446.5-1535.1-2513.1-1601.6-2595.2-1601.6z M-2595.2-1408.5
			c-24.9,0-45.1-20.2-45.1-45.1c0-24.9,20.2-43.8,45.1-43.8c24.9,0,45.1,18.9,45.1,43.8C-2550.1-1428.7-2570.3-1408.5-2595.2-1408.5
			z"/>
	</g>
</g>
<g id="g833" transform="matrix(0.33000001,0,0,0.33000001,642.70032,360.80566)">
	<g id="g831" transform="translate(1016.09,540)">
		<path id="path829" inkscape:connector-curvature="0" class="st0" d="M-2552.4-1272.6h-85.6v-360.8h85.6V-1272.6z"/>
	</g>
</g>
<g id="g839" transform="matrix(0.33000946,0,0,0.33000946,642.68884,361.29437)">
	<g id="g837" transform="translate(1185.13,540.04999)">
		<path id="path835" inkscape:connector-curvature="0" class="st0" d="M-2685.4-1362.6h57.7l32.6-32.6l32.6,32.6h57.7v-57
			l-32.9-32.9l32.9-32.9v-57.8h-56.9l-33.4,33.4l-33.4-33.4h-56.9v57.8l32.9,32.9l-32.9,32.9V-1362.6z"/>
	</g>
</g>
</svg>
