<?xml version="1.0" encoding="UTF-8" ?>
<!DOCTYPE svg PUBLIC "-//W3C//DTD SVG 1.1//EN" "http://www.w3.org/Graphics/SVG/1.1/DTD/svg11.dtd">
<svg width="968pt" height="242pt" viewBox="0 0 968 242" version="1.1" xmlns="http://www.w3.org/2000/svg">
<g id="#000000ff">
</g>
<g id="#ffffffff">
<path fill="#ffffff" opacity="1.00" d=" M 414.30 46.03 C 420.28 45.99 426.27 46.02 432.25 46.01 C 432.25 87.28 432.24 128.56 432.26 169.83 C 426.27 169.81 420.28 169.83 414.30 169.82 C 414.34 128.56 414.34 87.29 414.30 46.03 Z" />
<path fill="#ffffff" opacity="1.00" d=" M 216.00 52.72 C 249.31 52.77 282.61 52.73 315.92 52.74 C 315.95 57.32 315.74 61.92 316.18 66.49 C 302.55 66.91 288.89 66.54 275.25 66.68 C 275.35 101.07 275.27 135.45 275.29 169.84 C 268.99 169.81 262.69 169.83 256.38 169.83 C 256.43 135.44 256.37 101.05 256.41 66.66 C 242.94 66.71 229.47 66.61 216.00 66.71 C 216.00 62.05 216.00 57.38 216.00 52.72 Z" />
<path fill="#ffffff" opacity="1.00" d=" M 158.17 65.29 C 160.31 64.47 163.75 64.87 163.70 67.80 C 156.52 103.18 149.01 138.50 141.73 173.87 C 141.20 176.07 138.13 177.07 136.42 175.54 C 126.49 168.50 116.76 161.17 106.82 154.15 C 104.95 152.61 102.19 152.77 100.40 154.35 C 95.42 158.33 90.50 162.39 85.56 166.42 C 84.24 167.42 82.85 168.82 81.03 168.28 C 78.57 167.56 78.40 164.62 77.61 162.59 C 74.05 151.47 70.96 140.15 67.04 129.19 C 58.42 125.58 49.55 122.57 40.82 119.25 C 38.61 118.37 35.55 117.77 35.12 114.93 C 35.44 112.18 38.31 111.56 40.44 110.69 C 79.70 95.59 118.92 80.41 158.17 65.29 M 132.17 89.17 C 113.84 100.55 95.44 111.79 77.10 123.14 C 74.77 124.50 73.17 127.41 74.21 130.07 C 76.10 137.06 78.14 144.02 80.13 150.98 C 80.37 152.47 81.32 153.48 82.88 152.82 C 85.21 146.54 82.94 138.35 88.42 133.43 C 102.91 119.91 117.44 106.43 131.97 92.95 C 133.64 91.33 135.68 89.93 136.56 87.67 C 134.86 87.18 133.52 88.43 132.17 89.17 Z" />
<path fill="#ffffff" opacity="1.00" d=" M 334.95 91.03 C 343.13 82.57 355.89 80.35 367.09 82.46 C 375.49 83.99 382.83 89.66 386.81 97.17 C 392.31 107.24 392.64 119.03 392.47 130.23 C 374.88 130.72 357.18 129.10 339.70 131.54 C 341.55 141.87 347.92 151.99 358.13 155.68 C 369.08 159.87 380.66 155.70 391.56 153.50 C 391.59 158.05 391.70 162.60 391.77 167.15 C 384.24 168.73 376.73 170.50 369.08 171.42 C 356.74 173.02 343.89 168.63 334.78 160.25 C 325.30 151.28 321.00 137.83 321.47 124.99 C 321.92 112.65 325.45 99.54 334.95 91.03 M 346.62 100.61 C 342.53 104.84 341.25 110.74 339.95 116.27 C 351.53 116.32 363.12 116.31 374.71 116.28 C 375.03 109.01 372.36 100.98 365.76 97.20 C 359.57 94.00 351.35 95.52 346.62 100.61 Z" />
<path fill="#ffffff" opacity="1.00" d=" M 479.04 82.99 C 487.12 81.13 495.92 81.05 503.59 84.51 C 510.98 87.77 516.42 94.50 519.11 102.00 C 522.58 110.98 522.71 120.75 522.61 130.25 C 504.88 130.18 487.15 129.84 469.41 129.83 C 470.00 138.66 473.53 147.85 481.04 153.03 C 487.93 158.04 496.89 158.03 505.00 157.09 C 510.79 156.38 516.40 154.70 522.11 153.53 C 522.72 157.58 523.00 161.85 521.73 165.80 C 521.06 167.78 518.61 167.80 516.95 168.44 C 504.61 171.34 491.11 173.88 478.96 168.88 C 468.24 165.02 459.33 156.53 455.20 145.89 C 450.11 133.49 450.68 119.36 454.83 106.79 C 458.66 95.80 467.58 86.02 479.04 82.99 M 476.65 100.70 C 472.63 104.93 471.31 110.76 470.09 116.27 C 481.66 116.31 493.22 116.32 504.79 116.27 C 505.18 108.97 502.43 100.94 495.81 97.16 C 489.58 94.00 481.36 95.55 476.65 100.70 Z" />
<path fill="#ffffff" opacity="1.00" d=" M 554.53 88.45 C 563.94 81.43 577.01 79.52 587.96 83.88 C 592.05 85.39 595.58 88.02 599.17 90.45 C 599.13 88.14 599.09 85.83 599.04 83.53 C 604.86 83.76 610.72 83.61 616.53 84.19 C 616.52 101.80 616.81 119.40 616.75 137.01 C 616.59 149.88 616.81 162.87 614.34 175.56 C 612.83 183.52 608.46 191.14 601.43 195.42 C 590.27 203.07 576.04 203.51 563.06 201.96 C 557.15 201.47 551.51 199.61 545.84 198.02 C 545.99 193.16 546.34 188.28 547.23 183.49 C 558.56 186.66 570.31 189.92 582.19 188.61 C 587.77 188.03 593.12 184.76 595.57 179.60 C 599.26 171.91 598.94 163.11 599.17 154.78 C 593.75 159.61 588.39 165.21 581.02 166.84 C 572.06 168.81 562.12 167.79 554.18 162.99 C 546.40 158.34 541.82 149.80 539.89 141.16 C 537.96 132.23 537.80 122.89 539.28 113.88 C 540.83 103.85 546.50 94.61 554.53 88.45 M 562.73 103.80 C 557.83 110.05 557.07 118.36 557.11 126.02 C 557.18 132.64 557.48 139.85 561.58 145.38 C 565.27 150.38 571.87 152.37 577.86 151.52 C 586.50 150.72 593.07 144.48 599.11 138.86 C 599.16 127.83 599.06 116.79 599.15 105.76 C 594.36 101.25 588.74 97.17 582.11 96.01 C 574.83 94.54 567.18 98.03 562.73 103.80 Z" />
<path fill="#ffffff" opacity="1.00" d=" M 659.67 94.33 C 665.18 88.18 672.73 83.88 680.92 82.64 C 684.10 82.24 687.28 81.90 690.47 81.52 C 690.45 87.20 690.43 92.88 690.49 98.56 C 682.20 96.16 673.34 99.53 666.99 104.93 C 664.00 107.62 660.58 110.70 660.52 115.05 C 659.39 133.14 659.57 151.29 659.19 169.41 C 653.37 169.58 647.56 169.70 641.75 169.92 C 641.75 141.11 641.76 112.30 641.74 83.50 C 647.62 83.63 653.50 83.48 659.39 83.59 C 659.39 87.17 659.51 90.75 659.67 94.33 Z" />
<path fill="#ffffff" opacity="1.00" d=" M 704.23 87.71 C 717.13 82.99 731.20 80.16 744.90 82.60 C 752.35 83.83 758.92 89.22 761.33 96.41 C 762.66 101.48 762.44 106.77 762.64 111.96 C 762.71 122.66 763.21 133.34 763.32 144.04 C 763.58 147.69 763.18 151.58 764.74 155.00 C 766.78 158.18 770.89 158.66 774.24 159.61 C 774.33 163.22 774.49 166.83 774.24 170.44 C 768.94 171.36 763.43 172.21 758.10 171.12 C 753.00 170.01 749.97 165.33 747.99 160.89 C 740.41 167.80 730.30 172.05 719.98 171.71 C 711.55 171.72 703.65 166.26 699.96 158.82 C 697.40 153.82 696.82 148.00 697.69 142.50 C 699.05 133.93 705.84 127.15 713.38 123.45 C 723.38 119.31 734.36 118.12 745.12 118.27 C 745.02 112.60 745.61 106.47 742.74 101.33 C 740.64 97.47 736.15 95.62 731.92 95.57 C 722.45 95.18 713.94 100.03 704.86 101.85 C 704.61 97.14 704.43 92.43 704.23 87.71 M 719.22 136.29 C 712.72 141.20 714.55 152.83 722.14 155.69 C 730.26 159.07 738.64 153.88 745.15 149.34 C 745.05 142.65 745.12 135.96 745.11 129.27 C 736.06 128.72 726.52 130.70 719.22 136.29 Z" />
<path fill="#ffffff" opacity="1.00" d=" M 829.44 82.63 C 834.75 81.75 840.63 81.68 845.40 84.54 C 850.91 87.65 854.13 93.35 857.49 98.48 C 864.21 91.05 873.24 85.53 883.15 83.71 C 890.02 82.51 897.65 83.31 903.28 87.74 C 906.49 90.02 908.35 93.56 910.37 96.83 C 911.17 121.11 910.57 145.40 910.33 169.69 C 904.61 170.04 898.89 169.72 893.17 169.88 C 893.46 147.38 893.12 124.87 892.46 102.38 C 890.28 96.34 882.67 94.22 877.15 97.02 C 869.80 99.81 864.18 105.61 859.09 111.38 C 859.16 130.87 859.21 150.35 859.30 169.84 C 853.36 169.82 847.42 169.81 841.48 169.85 C 841.36 147.28 841.13 124.71 840.90 102.15 C 838.39 99.31 835.12 96.44 831.06 96.81 C 822.75 97.69 815.14 102.52 809.99 108.97 C 808.97 110.47 807.49 111.97 807.62 113.93 C 807.56 132.56 807.47 151.20 807.43 169.83 C 801.52 169.82 795.62 169.81 789.72 169.84 C 789.71 141.08 789.74 112.31 789.70 83.55 C 795.70 83.58 801.69 83.52 807.70 83.58 C 807.58 88.53 807.66 93.47 807.60 98.41 C 813.68 91.80 820.46 84.94 829.44 82.63 Z" />
</g>
</svg>
