<?xml version="1.0" encoding="UTF-8" standalone="no"?>
<!DOCTYPE svg PUBLIC "-//W3C//DTD SVG 1.1//EN" "http://www.w3.org/Graphics/SVG/1.1/DTD/svg11.dtd">
<svg width="100%" height="100%" viewBox="0 0 956 551" version="1.1" xmlns="http://www.w3.org/2000/svg" xmlns:xlink="http://www.w3.org/1999/xlink" xml:space="preserve" xmlns:serif="http://www.serif.com/" style="fill-rule:evenodd;clip-rule:evenodd;stroke-linejoin:round;stroke-miterlimit:2;">
    <g transform="matrix(1.25299,0,0,1.25299,-147.815,-351.27)">
        <path d="M476.44,281.63C485.9,279.14 496.82,280.07 504.76,286.18C511.9,291.44 515.72,300.02 517.23,308.55C524.29,304.87 530.9,300.28 538.32,297.31C547.99,293.38 558.28,289.27 568.93,290.72C576.75,291.58 583.99,296.52 587.48,303.59C591.25,311.11 590.97,320.13 588.11,327.9C583.78,339.57 575.71,349.43 566.57,357.71C561.4,362.52 555.58,366.58 550.46,371.45C538.82,382.33 529.43,395.74 523.87,410.71C528.58,410.63 533.27,409.97 537.98,409.85C559.08,410.32 580.74,414.67 598.69,426.26C608.98,433.08 617.93,441.76 626.03,451.02C631.09,457.11 636.39,463.84 637.1,472.02C638,479.59 635.61,487.36 630.86,493.3C634.16,500.05 634.99,507.64 635.09,515.07C635.11,520.87 635.78,526.79 634.28,532.49C626.41,561.48 606.02,585.38 582.98,603.84C567.67,615.94 550.42,625.82 531.67,631.43C520.62,658.35 509.09,685.06 497.93,711.92C496.71,714.8 494.56,717.38 491.61,718.58C486.69,720.88 480.29,719.27 477.12,714.86C474.64,711.2 474.46,706.28 476.18,702.27C488.1,673.84 500.1,645.45 512.02,617.02C513.54,613.49 516.49,610.35 520.38,609.58C534.32,606.56 547.27,600.03 558.96,591.99C573.84,581.84 587.26,569.37 597.63,554.59C603.05,546.93 607.64,538.59 610.4,529.6C612.54,522.66 611.41,515.32 610.74,508.24C604.44,507.35 597.48,507.36 591.98,511C589.75,512.3 589.01,514.91 588.04,517.12C581.38,534.01 567.77,548.32 550.67,554.75C542.53,557.91 533.42,559.03 524.92,556.64C515.03,554.15 506.68,547.37 501.05,539C492.69,526.58 489.17,510.63 492.96,496C495.98,483.09 504.49,471.57 516,464.96C526.9,458.65 540.28,456.46 552.54,459.59C561.08,461.99 568.25,467.54 574.97,473.13C581.11,478.38 589.02,481.38 597.03,482.08C603.19,482.03 609.63,480.24 614.1,475.8C610.93,469.09 605.86,463.54 600.48,458.53C595.42,453.9 590.53,448.97 584.59,445.46C570.95,437.17 554.78,434.14 539.02,433.67C523.94,433.31 508.04,438.3 497.84,449.84C494.54,453.49 492.01,458.65 486.82,459.85C480.59,461.48 473.47,457.35 472.31,450.91C471.18,446.79 472.94,442.65 475.59,439.54C481.51,431.56 489.11,424.9 497.68,419.88C498.83,405.92 504.98,392.87 512.08,380.98C517.82,371.72 524.75,363.2 532.53,355.56C541.75,346.77 552.85,339.83 560.44,329.41C563.83,325.01 566.37,319.79 566.61,314.16C558.03,314.29 550.07,317.86 542.54,321.62C514.9,336.08 493.33,360.26 478.41,387.34C458.63,423.22 450.25,464.29 448.4,504.91C447.79,514.63 448.34,524.38 447.44,534.07C444.41,573.6 434.83,612.66 418.92,648.98C416.33,655.01 408.26,657.72 402.54,654.53C397.45,651.97 394.84,645.38 396.94,640.06C411.59,606.51 420.57,570.5 423.56,534.03C424.46,518.31 424.22,502.52 425.86,486.85C413.59,472.02 401.45,456.99 391.29,440.61C385.32,430.89 379.87,420.72 376.34,409.85C373.74,401.01 372.42,391.03 376.19,382.33C379.97,373.65 387.79,366.77 396.95,364.32C404.48,362.26 412.57,364.03 419.38,367.58C426.54,371.28 432.42,376.91 438.2,382.45C439.55,357.01 441,330.76 451.24,307.06C455.95,295.84 464.47,285.36 476.44,281.63M483.5,304.34C479.37,305.6 476.85,309.44 474.81,312.99C470.51,321.06 468.15,330 466.4,338.93C464.84,347.87 463.26,356.89 463.53,366.01C471.63,352.1 482.15,339.79 493.35,328.3C494.32,321.45 494.82,314.21 492.32,307.62C491.03,304.21 486.66,303.31 483.5,304.34M402.34,387.39C399.09,388.7 396.99,392.47 397.55,395.93C398.95,404.05 402.21,411.74 406.15,418.95C413.08,431.39 421.3,443.06 430.04,454.27C432.53,442.47 435.59,430.8 438.79,419.17C435.4,417.37 432.34,414.92 430.41,411.56C425.37,403.82 419.35,396.59 411.99,390.96C409.19,388.96 405.94,386.8 402.34,387.39M520.77,491.83C512.79,501.75 514.06,516.68 521.37,526.61C524.71,531.72 530.97,535.05 537.11,533.97C544.44,532.62 551.07,528.53 556.23,523.24C563.06,516.41 566.72,507.25 569.98,498.35C561.49,494.5 555.76,486.5 547.2,482.8C537.62,480.23 526.73,483.85 520.77,491.83Z" style="fill:rgb(0,208,108);fill-rule:nonzero;"/>
    </g>
    <g transform="matrix(1.25299,0,0,1.25299,-147.815,-351.27)">
        <path d="M827.23,406C838.41,406 849.59,406 860.77,406.01C860.76,422.67 860.77,439.33 860.77,456C867.45,456 874.14,455.99 880.84,456C880.83,465.51 880.84,475.01 880.83,484.52C874.14,484.51 867.45,484.51 860.77,484.52C860.76,519.85 860.77,555.19 860.76,590.52C849.59,590.51 838.41,590.51 827.24,590.52C827.23,555.19 827.24,519.85 827.23,484.52C821.43,484.48 815.63,484.58 809.83,484.46C809.91,474.98 809.84,465.49 809.87,456L827.23,456C827.23,439.33 827.24,422.67 827.23,406Z" style="fill:white;fill-rule:nonzero;"/>
    </g>
    <g transform="matrix(1.25299,0,0,1.25299,-147.815,-351.27)">
        <path d="M154.83,453.76C175.6,449.02 198.59,457.55 210.99,474.92C204.04,481.93 197.06,488.92 190.11,495.94C184.63,490.72 178.46,485.64 170.92,483.9C166.57,483.13 161.63,483.23 157.94,485.95C155.49,487.7 154.07,491 155.13,493.94C156.05,497.06 159.04,498.8 161.68,500.34C174.09,507.17 187.65,512.19 198.73,521.23C215.15,533.42 218.16,558.98 206.31,575.3C199.67,584.68 189.07,590.82 177.84,592.81C164.28,595.22 149.72,594.07 137.37,587.67C129.72,583.74 123.14,577.89 117.97,571.05C124.88,563.56 131.78,556.06 138.69,548.57C144.72,555.45 152.6,560.87 161.46,563.32C167.74,564.88 175.46,564.03 179.76,558.68C182.53,555.5 182.14,550.59 179.54,547.43C174.51,541.03 166.64,538.07 159.63,534.42C148.03,528.82 136.37,521.89 129.01,510.99C121.62,500.29 120.9,485.48 127.13,474.08C132.84,463.71 143.27,456.19 154.83,453.76Z" style="fill:white;fill-rule:nonzero;"/>
    </g>
    <g transform="matrix(1.25299,0,0,1.25299,-147.815,-351.27)">
        <path d="M263.56,462.67C276.08,453.93 292.11,450.89 307.09,453.35C319.62,455.37 331.2,461.97 339.87,471.15C339.41,466.11 339.77,461.05 339.66,456L373.21,456C373.21,500.84 373.2,545.67 373.21,590.51C362.03,590.52 350.84,590.52 339.66,590.51C339.66,585.75 339.66,580.99 339.67,576.23C334.27,581.13 328.5,585.74 321.86,588.84C309.02,594.9 293.92,595.4 280.4,591.38C265.33,586.8 252.75,575.85 244.41,562.68C233.59,545.35 231.78,523.63 235.98,503.96C239.5,487.34 249.57,472.29 263.56,462.67M296.21,484.23C282.62,486.83 271.75,498.43 268.78,511.76C266.55,521.95 267.14,533.04 271.72,542.52C276.55,552.27 285.68,560.13 296.49,562.27C304.96,563.86 314.08,563 321.74,558.86C330.52,554.1 337.13,545.56 339.63,535.9C341.79,527.52 341.85,518.56 339.65,510.19C337.1,500.55 330.4,492.1 321.56,487.49C313.83,483.46 304.7,482.67 296.21,484.23Z" style="fill:white;fill-rule:nonzero;"/>
    </g>
    <g transform="matrix(1.25299,0,0,1.25299,-147.815,-351.27)">
        <path d="M711.47,453.6C740.74,448.1 772.71,463.02 786.67,489.44C795.68,505.7 797.55,525.57 792.33,543.35C787.5,559.65 776.83,574.32 762.28,583.24C747.91,592.33 730.25,595.59 713.5,593.25C684.12,589.4 659.08,564.32 654.93,535.05C652.38,517.89 655.29,499.55 665.01,484.97C675.62,469.06 692.46,456.91 711.47,453.6M714.41,485.69C704.43,488.26 696.03,495.67 691.58,504.88C684.32,521.01 686.66,542.53 700.49,554.51C710.8,563.75 726.59,565.32 739.15,560.09C749.74,555.45 757.65,545.42 760.02,534.14C761.68,526.11 761.53,517.62 759.18,509.75C755.82,498.5 746.64,489.01 735.23,485.9C728.47,484.07 721.2,484 714.41,485.69Z" style="fill:white;fill-rule:nonzero;"/>
    </g>
</svg>
