<?xml version="1.0" encoding="UTF-8" standalone="no"?>
<!DOCTYPE svg PUBLIC "-//W3C//DTD SVG 1.1//EN" "http://www.w3.org/Graphics/SVG/1.1/DTD/svg11.dtd">
<svg width="100%" height="100%" viewBox="0 0 1000 1000" version="1.1" xmlns="http://www.w3.org/2000/svg" xmlns:xlink="http://www.w3.org/1999/xlink" xml:space="preserve" xmlns:serif="http://www.serif.com/" style="fill-rule:evenodd;clip-rule:evenodd;stroke-linejoin:round;stroke-miterlimit:2;">
    <g id="_-00d06cff" serif:id="#00d06cff" transform="matrix(2.15644,0,0,2.15644,-590.222,-578.187)">
        <path d="M476.44,281.63C485.9,279.14 496.82,280.07 504.76,286.18C511.9,291.44 515.72,300.02 517.23,308.55C524.29,304.87 530.9,300.28 538.32,297.31C547.99,293.38 558.28,289.27 568.93,290.72C576.75,291.58 583.99,296.52 587.48,303.59C591.25,311.11 590.97,320.13 588.11,327.9C583.78,339.57 575.71,349.43 566.57,357.71C561.4,362.52 555.58,366.58 550.46,371.45C538.82,382.33 529.43,395.74 523.87,410.71C528.58,410.63 533.27,409.97 537.98,409.85C559.08,410.32 580.74,414.67 598.69,426.26C608.98,433.08 617.93,441.76 626.03,451.02C631.09,457.11 636.39,463.84 637.1,472.02C638,479.59 635.61,487.36 630.86,493.3C634.16,500.05 634.99,507.64 635.09,515.07C635.11,520.87 635.78,526.79 634.28,532.49C626.41,561.48 606.02,585.38 582.98,603.84C567.67,615.94 550.42,625.82 531.67,631.43C520.62,658.35 509.09,685.06 497.93,711.92C496.71,714.8 494.56,717.38 491.61,718.58C486.69,720.88 480.29,719.27 477.12,714.86C474.64,711.2 474.46,706.28 476.18,702.27C488.1,673.84 500.1,645.45 512.02,617.02C513.54,613.49 516.49,610.35 520.38,609.58C534.32,606.56 547.27,600.03 558.96,591.99C573.84,581.84 587.26,569.37 597.63,554.59C603.05,546.93 607.64,538.59 610.4,529.6C612.54,522.66 611.41,515.32 610.74,508.24C604.44,507.35 597.48,507.36 591.98,511C589.75,512.3 589.01,514.91 588.04,517.12C581.38,534.01 567.77,548.32 550.67,554.75C542.53,557.91 533.42,559.03 524.92,556.64C515.03,554.15 506.68,547.37 501.05,539C492.69,526.58 489.17,510.63 492.96,496C495.98,483.09 504.49,471.57 516,464.96C526.9,458.65 540.28,456.46 552.54,459.59C561.08,461.99 568.25,467.54 574.97,473.13C581.11,478.38 589.02,481.38 597.03,482.08C603.19,482.03 609.63,480.24 614.1,475.8C610.93,469.09 605.86,463.54 600.48,458.53C595.42,453.9 590.53,448.97 584.59,445.46C570.95,437.17 554.78,434.14 539.02,433.67C523.94,433.31 508.04,438.3 497.84,449.84C494.54,453.49 492.01,458.65 486.82,459.85C480.59,461.48 473.47,457.35 472.31,450.91C471.18,446.79 472.94,442.65 475.59,439.54C481.51,431.56 489.11,424.9 497.68,419.88C498.83,405.92 504.98,392.87 512.08,380.98C517.82,371.72 524.75,363.2 532.53,355.56C541.75,346.77 552.85,339.83 560.44,329.41C563.83,325.01 566.37,319.79 566.61,314.16C558.03,314.29 550.07,317.86 542.54,321.62C514.9,336.08 493.33,360.26 478.41,387.34C458.63,423.22 450.25,464.29 448.4,504.91C447.79,514.63 448.34,524.38 447.44,534.07C444.41,573.6 434.83,612.66 418.92,648.98C416.33,655.01 408.26,657.72 402.54,654.53C397.45,651.97 394.84,645.38 396.94,640.06C411.59,606.51 420.57,570.5 423.56,534.03C424.46,518.31 424.22,502.52 425.86,486.85C413.59,472.02 401.45,456.99 391.29,440.61C385.32,430.89 379.87,420.72 376.34,409.85C373.74,401.01 372.42,391.03 376.19,382.33C379.97,373.65 387.79,366.77 396.95,364.32C404.48,362.26 412.57,364.03 419.38,367.58C426.54,371.28 432.42,376.91 438.2,382.45C439.55,357.01 441,330.76 451.24,307.06C455.95,295.84 464.47,285.36 476.44,281.63M483.5,304.34C479.37,305.6 476.85,309.44 474.81,312.99C470.51,321.06 468.15,330 466.4,338.93C464.84,347.87 463.26,356.89 463.53,366.01C471.63,352.1 482.15,339.79 493.35,328.3C494.32,321.45 494.82,314.21 492.32,307.62C491.03,304.21 486.66,303.31 483.5,304.34M402.34,387.39C399.09,388.7 396.99,392.47 397.55,395.93C398.95,404.05 402.21,411.74 406.15,418.95C413.08,431.39 421.3,443.06 430.04,454.27C432.53,442.47 435.59,430.8 438.79,419.17C435.4,417.37 432.34,414.92 430.41,411.56C425.37,403.82 419.35,396.59 411.99,390.96C409.19,388.96 405.94,386.8 402.34,387.39M520.77,491.83C512.79,501.75 514.06,516.68 521.37,526.61C524.71,531.72 530.97,535.05 537.11,533.97C544.44,532.62 551.07,528.53 556.23,523.24C563.06,516.41 566.72,507.25 569.98,498.35C561.49,494.5 555.76,486.5 547.2,482.8C537.62,480.23 526.73,483.85 520.77,491.83Z" style="fill:rgb(0,208,108);fill-rule:nonzero;"/>
    </g>
</svg>
